<?xml version="1.0" encoding="utf-8"?>
<!-- Generator: Adobe Illustrator 19.1.0, SVG Export Plug-In . SVG Version: 6.00 Build 0)  -->
<svg version="1.1" id="Layer_1" xmlns="http://www.w3.org/2000/svg" xmlns:xlink="http://www.w3.org/1999/xlink" x="0px" y="0px"
	 viewBox="0 0 52 52" style="enable-background:new 0 0 52 52;" xml:space="preserve">
<style type="text/css">
	.st0{fill:#1EC1EB;}
</style>
<path id="Twitter__x28_alt_x29__2_" class="st0" d="M45.3,24.1c2.8-0.2,4.7-1.5,5.4-3.2c-1,0.6-4.2,1.3-5.9,0.7
	c-0.1-0.4-0.2-0.8-0.3-1.1c-1.3-4.9-5.9-8.8-10.6-8.3c0.4-0.2,0.8-0.3,1.2-0.4c0.5-0.2,3.6-0.7,3.1-1.8c-0.4-0.9-4.2,0.7-4.9,0.9
	c0.9-0.3,2.5-0.9,2.6-2c-1.4,0.2-2.8,0.9-3.9,1.9c0.4-0.4,0.7-0.9,0.8-1.5c-3.8,2.4-6,7.3-7.8,12.1c-1.4-1.4-2.7-2.4-3.8-3
	c-3.2-1.7-6.9-3.4-12.8-5.6c-0.2,2,1,4.6,4.3,6.3c-0.7-0.1-2,0.1-3.1,0.4c0.4,2.2,1.8,4.1,5.6,5c-1.7,0.1-2.6,0.5-3.4,1.4
	c0.8,1.6,2.7,3.4,6.2,3c-3.8,1.7-1.6,4.7,1.6,4.3C14.2,38.3,5.8,37.9,1,33.3c12.6,17.2,40,10.2,44-6.4c3.1,0,4.9-1.1,6-2.3
	C49.2,25,46.7,24.7,45.3,24.1z"/>
</svg>
