<?xml version="1.0" encoding="utf-8"?>
<!-- Generator: Adobe Illustrator 19.2.1, SVG Export Plug-In . SVG Version: 6.00 Build 0)  -->
<svg version="1.1" id="Layer_1" xmlns="http://www.w3.org/2000/svg" xmlns:xlink="http://www.w3.org/1999/xlink" x="0px" y="0px"
	 viewBox="0 0 34 34" style="enable-background:new 0 0 34 34;" xml:space="preserve">
<style type="text/css">
	.st0{fill:#1BC1EB;}
</style>
<g>
	<polygon class="st0" points="19.9,0.9 19.6,1.1 1.1,19.6 1,19.8 18.7,18.7 	"/>
	<path class="st0" d="M21.7,0.7L21,13.3l12.4-0.8c-0.1-0.3-0.2-0.6-0.4-0.8L22.3,1.1C22.1,0.9,21.9,0.8,21.7,0.7z"/>
	<path class="st0" d="M0.7,21.7c0.1,0.2,0.2,0.4,0.4,0.6l10.6,10.6c0.2,0.2,0.4,0.3,0.7,0.4l0.9-12.4L0.7,21.7z"/>
	<polygon class="st0" points="20.5,20.5 15.2,20.8 14.2,32.9 14.3,32.9 32.8,14.4 20.8,15.2 	"/>
</g>
</svg>
