<?xml version="1.0" encoding="utf-8"?>
<!-- Generator: Adobe Illustrator 19.2.1, SVG Export Plug-In . SVG Version: 6.00 Build 0)  -->
<svg version="1.1" id="Layer_1" xmlns="http://www.w3.org/2000/svg" xmlns:xlink="http://www.w3.org/1999/xlink" x="0px" y="0px"
	 viewBox="0 0 32 32" style="enable-background:new 0 0 32 32;" xml:space="preserve">
<style type="text/css">
	.st0{fill:#1BC1EB;}
</style>
<path class="st0" d="M30.3,4.3h-3.9h-4.5V1c0-0.4-0.3-0.7-0.7-0.7H16h-5.2c-0.4,0-0.7,0.3-0.7,0.7v3.3H5.6H1.8C1.3,4.3,1,4.6,1,4.9
	c0,0.4,0.3,0.7,0.7,0.7H5V31c0,0.4,0.3,0.7,0.7,0.7H16h10.3c0.4,0,0.7-0.3,0.7-0.7V5.6h3.3c0.4,0,0.7-0.3,0.7-0.7
	C31,4.6,30.7,4.3,30.3,4.3z M11.5,24.5c0,0.4-0.3,0.7-0.7,0.7c-0.4,0-0.7-0.3-0.7-0.7V10.1c0-0.4,0.3-0.7,0.7-0.7
	c0.4,0,0.7,0.3,0.7,0.7V24.5z M11.5,1.7H16h4.5v2.6H16h-4.5V1.7z M16.7,24.5c0,0.4-0.3,0.7-0.7,0.7c-0.4,0-0.7-0.3-0.7-0.7V10.1
	c0-0.4,0.3-0.7,0.7-0.7c0.4,0,0.7,0.3,0.7,0.7V24.5z M22,24.5c0,0.4-0.3,0.7-0.7,0.7c-0.4,0-0.7-0.3-0.7-0.7V10.1
	c0-0.4,0.3-0.7,0.7-0.7c0.4,0,0.7,0.3,0.7,0.7V24.5z"/>
</svg>
