<?xml version="1.0" encoding="utf-8"?>
<!-- Generator: Adobe Illustrator 19.2.1, SVG Export Plug-In . SVG Version: 6.00 Build 0)  -->
<svg version="1.1" id="Layer_1" xmlns="http://www.w3.org/2000/svg" xmlns:xlink="http://www.w3.org/1999/xlink" x="0px" y="0px"
	 viewBox="0 0 52 52" style="enable-background:new 0 0 52 52;" xml:space="preserve">
<style type="text/css">
	.st0{fill:#1EC1EB;}
	.st1{clip-path:url(#SVGID_2_);}
</style>
<g>
	<defs>
		<rect id="SVGID_1_" x="1.5" y="2.9" width="49.1" height="46.1"/>
	</defs>
	<clipPath id="SVGID_2_">
		<use xlink:href="#SVGID_1_"  style="overflow:visible;"/>
	</clipPath>
	<g class="st1">
		<path class="st0" d="M1.9,49.1h22.6c0.3,0,0.5-0.2,0.5-0.5v-6.7c0-0.3-0.2-0.5-0.5-0.5H1.9c-0.3,0-0.5,0.2-0.5,0.5v6.7
			C1.5,48.8,1.7,49.1,1.9,49.1z"/>
		<path class="st0" d="M27.4,49.1h22.6c0.3,0,0.5-0.2,0.5-0.5v-6.7c0-0.3-0.2-0.5-0.5-0.5H27.4c-0.3,0-0.5,0.2-0.5,0.5v6.7
			C27,48.8,27.2,49.1,27.4,49.1z"/>
		<path class="st0" d="M24.6,22.1H1.9c-0.3,0-0.5,0.2-0.5,0.5v6.7c0,0.3,0.2,0.5,0.5,0.5h22.6c0.3,0,0.5-0.2,0.5-0.5v-6.7
			C25,22.3,24.8,22.1,24.6,22.1z"/>
		<path class="st0" d="M50.1,22.1H27.4c-0.3,0-0.5,0.2-0.5,0.5v6.7c0,0.3,0.2,0.5,0.5,0.5h22.6c0.3,0,0.5-0.2,0.5-0.5v-6.7
			C50.5,22.3,50.3,22.1,50.1,22.1z"/>
		<path class="st0" d="M24.6,2.9H1.9c-0.3,0-0.5,0.2-0.5,0.5v6.7c0,0.3,0.2,0.5,0.5,0.5h22.6c0.3,0,0.5-0.2,0.5-0.5V3.4
			C25,3.2,24.8,2.9,24.6,2.9z"/>
		<path class="st0" d="M50.1,2.9H27.4c-0.3,0-0.5,0.2-0.5,0.5v6.7c0,0.3,0.2,0.5,0.5,0.5h22.6c0.3,0,0.5-0.2,0.5-0.5V3.4
			C50.5,3.2,50.3,2.9,50.1,2.9z"/>
		<path class="st0" d="M37.3,31.7H14.7c-0.3,0-0.5,0.2-0.5,0.5V39c0,0.3,0.2,0.5,0.5,0.5h22.6c0.3,0,0.5-0.2,0.5-0.5v-6.7
			C37.8,32,37.6,31.7,37.3,31.7z"/>
		<path class="st0" d="M40.2,39.4h23.1v-7.7H40.2c-0.3,0-0.5,0.2-0.5,0.5V39C39.7,39.2,39.9,39.4,40.2,39.4z"/>
		<path class="st0" d="M11.8,31.7h-23.1v7.7h23.1c0.3,0,0.5-0.2,0.5-0.5v-6.7C12.3,32,12.1,31.7,11.8,31.7z"/>
		<path class="st0" d="M14.7,20.2h22.6c0.3,0,0.5-0.2,0.5-0.5V13c0-0.3-0.2-0.5-0.5-0.5H14.7c-0.3,0-0.5,0.2-0.5,0.5v6.7
			C14.2,20,14.4,20.2,14.7,20.2z"/>
		<path class="st0" d="M39.7,13v6.7c0,0.3,0.2,0.5,0.5,0.5h23.1v-7.7H40.2C39.9,12.5,39.7,12.7,39.7,13z"/>
		<path class="st0" d="M11.8,12.5h-23.1v7.7h23.1c0.3,0,0.5-0.2,0.5-0.5V13C12.3,12.7,12.1,12.5,11.8,12.5z"/>
	</g>
</g>
</svg>
