<?xml version="1.0" encoding="utf-8"?>
<!-- Generator: Adobe Illustrator 21.0.0, SVG Export Plug-In . SVG Version: 6.00 Build 0)  -->
<svg version="1.1" id="Layer_1" xmlns="http://www.w3.org/2000/svg" xmlns:xlink="http://www.w3.org/1999/xlink" x="0px" y="0px"
	 viewBox="0 0 52 52" style="enable-background:new 0 0 52 52;" xml:space="preserve">
<style type="text/css">
	.st0{fill:#1EC1EB;}
</style>
<g>
	<path class="st0" d="M25.9,34l-12.7-5.7c-1.3,1.9-1.3,4.2-1.3,4.2v1.9c5.9,0,11.1,3.2,14,7.9c2.9-4.7,8.1-7.9,14.1-7.9v-1.9
		c0-1.9-0.5-3.2-1.2-4.2L25.9,34z"/>
	<path class="st0" d="M46.7,28v-5.3l4.3-1.9L26,9.7L1,20.8L26,32l19.1-8.5V28c-1.3,0.4-2.3,1.5-2.3,3c0,1.3,0.8,2.4,1.9,2.9l-1,7.4
		h4.4l-1-7.4c1.1-0.5,1.9-1.6,1.9-2.9C49,29.5,48,28.3,46.7,28z"/>
</g>
</svg>
