<?xml version="1.0" encoding="utf-8"?>
<!-- Generator: Adobe Illustrator 19.2.1, SVG Export Plug-In . SVG Version: 6.00 Build 0)  -->
<svg version="1.1" id="Layer_1" xmlns="http://www.w3.org/2000/svg" xmlns:xlink="http://www.w3.org/1999/xlink" x="0px" y="0px"
	 viewBox="0 0 52 52" style="enable-background:new 0 0 52 52;" xml:space="preserve">
<style type="text/css">
	.st0{fill:#1EC1EB;}
	.st1{clip-path:url(#SVGID_2_);}
</style>
<path class="st0" d="M37.5,6H14.5C7.6,10,2.9,17.4,2.9,26s4.7,16,11.6,20h22.9c6.9-4,11.6-11.4,11.6-20S44.4,10,37.5,6z M12.6,29.3
	V11.6c0-0.3,0.2-0.5,0.5-0.5h5c0.3,0,0.5,0.2,0.5,0.5v17.7c0,0.3-0.2,0.5-0.5,0.5h-5C12.8,29.8,12.6,29.6,12.6,29.3z M17.5,41.4
	c-0.3,0-0.5-0.2-0.5-0.5c0.3-4.7,4.2-8.5,9-8.5s8.7,3.8,9,8.5c0,0.3-0.2,0.5-0.5,0.5H17.5z M38.9,29.8h-5c-0.3,0-0.5-0.2-0.5-0.5
	V11.6c0-0.3,0.2-0.5,0.5-0.5h5c0.3,0,0.5,0.2,0.5,0.5v17.7C39.4,29.6,39.2,29.8,38.9,29.8z"/>
</svg>
