<?xml version="1.0" encoding="utf-8"?>
<!-- Generator: Adobe Illustrator 19.2.1, SVG Export Plug-In . SVG Version: 6.00 Build 0)  -->
<svg version="1.1" id="Layer_1" xmlns="http://www.w3.org/2000/svg" xmlns:xlink="http://www.w3.org/1999/xlink" x="0px" y="0px"
	 viewBox="0 0 31 31" style="enable-background:new 0 0 31 31;" xml:space="preserve">
<style type="text/css">
	.st0{fill:#1BC1EB;}
</style>
<g>
	<rect x="22.1" y="3.2" transform="matrix(0.7071 -0.7071 0.7071 0.7071 1.1097 18.619)" class="st0" width="1.9" height="9.5"/>
	<rect x="3.6" y="12.5" transform="matrix(0.7071 -0.7071 0.7071 0.7071 -6.4662 13.1157)" class="st0" width="18.1" height="3.8"/>
	<path class="st0" d="M0.6,29.1c-0.1,0.4,0,0.8,0.3,1.1s0.7,0.4,1.1,0.3l8.1-3.2L3.8,21L0.6,29.1z"/>
	<path class="st0" d="M29.1,8.6c1.9-1.9,1.9-4.8,0-6.7c-1.9-1.9-4.8-1.9-6.7,0l-0.7,0.7l6.7,6.7L29.1,8.6z"/>
	<rect x="7.6" y="16.5" transform="matrix(0.7071 -0.7071 0.7071 0.7071 -8.1387 17.1535)" class="st0" width="18.1" height="3.8"/>
</g>
</svg>
