<?xml version="1.0" encoding="utf-8"?>
<!-- Generator: Adobe Illustrator 19.2.1, SVG Export Plug-In . SVG Version: 6.00 Build 0)  -->
<svg version="1.1" id="Layer_1" xmlns="http://www.w3.org/2000/svg" xmlns:xlink="http://www.w3.org/1999/xlink" x="0px" y="0px"
	 viewBox="0 0 40 32" style="enable-background:new 0 0 40 32;" xml:space="preserve">
<style type="text/css">
	.st0{fill:#1BC1EB;}
</style>
<g>
	<path class="st0" d="M23.4,10.7c-3.8,0-6.9,3.1-6.9,6.9c0,3.8,3.1,6.9,6.9,6.9c3.8,0,6.9-3.1,6.9-6.9
		C30.3,13.8,27.2,10.7,23.4,10.7z M21.6,21.3c-0.8-0.7-1.4-1.8-1.4-3c0-2.2,1.8-4.1,4.1-4.1c1.2,0,2.3,0.6,3.1,1.5
		C24.4,16,22,18.3,21.6,21.3z"/>
	<path class="st0" d="M36.4,3.7h-2.7V1h-2.7v2.7H17.3C17.3,2.4,16,1,14.5,1H9.1C7.6,1,6.4,2.4,6.4,3.7H3.6C2.1,3.7,0.9,5,0.9,6.5
		v21.8c0,1.5,1.2,2.7,2.7,2.7h32.7c1.5,0,2.7-1.2,2.7-2.7V6.5C39.1,5,37.9,3.7,36.4,3.7z M7.4,12.9c-1.1,0-2-0.9-2-2
		c0-1.1,0.9-2,2-2c1.1,0,2,0.9,2,2C9.4,12,8.5,12.9,7.4,12.9z M23.4,28C17.7,28,13,23.3,13,17.6c0-5.7,4.7-10.4,10.4-10.4
		c5.7,0,10.4,4.7,10.4,10.4C33.8,23.3,29.1,28,23.4,28z"/>
</g>
</svg>
