<?xml version="1.0" encoding="utf-8"?>
<!-- Generator: Adobe Illustrator 19.2.1, SVG Export Plug-In . SVG Version: 6.00 Build 0)  -->
<svg version="1.1" id="Layer_1" xmlns="http://www.w3.org/2000/svg" xmlns:xlink="http://www.w3.org/1999/xlink" x="0px" y="0px"
	 viewBox="0 0 52 52" style="enable-background:new 0 0 52 52;" xml:space="preserve">
<style type="text/css">
	.st0{fill:#1EC1EB;}
	.st1{clip-path:url(#SVGID_2_);}
</style>
<g>
	<path class="st0" d="M34,33.6H18c-2.7,2.3-4.4,5.7-4.4,9.5h24.8C38.4,39.3,36.7,35.9,34,33.6z"/>
	<path class="st0" d="M38.9,49.1H13.1c-1.2,0-2.1-0.9-2.1-2.1v-0.2c0-1.2,0.9-2.1,2.1-2.1h25.8c1.2,0,2.1,0.9,2.1,2.1V47
		C41,48.1,40.1,49.1,38.9,49.1z"/>
	<path class="st0" d="M29,32.1v-27c0-1.2-1-2.2-2.2-2.2h-1.5c-1.2,0-2.2,1-2.2,2.2v27H29z"/>
</g>
</svg>
