<?xml version="1.0" encoding="utf-8"?>
<!-- Generator: Adobe Illustrator 19.2.1, SVG Export Plug-In . SVG Version: 6.00 Build 0)  -->
<svg version="1.1" id="Layer_1" xmlns="http://www.w3.org/2000/svg" xmlns:xlink="http://www.w3.org/1999/xlink" x="0px" y="0px"
	 viewBox="0 0 31 31" style="enable-background:new 0 0 31 31;" xml:space="preserve">
<style type="text/css">
	.st0{fill:#1BC1EB;}
</style>
<path class="st0" d="M7.1,28.7l0.3-0.2c1.1-0.5,2.8-6.2,2.8-6.7l0-0.4c-0.2-0.8-0.9-1.6-2.5-3.4c0.9-2,3.4-4.8,4.9-6.1
	c1.6-1.4,4.3-3.2,6.3-3.8c1.8,2.1,2.6,2.9,3.5,3c0.5,0,6.4-1,7-2l0.2-0.3C30,8.1,30.7,7.1,30.5,6c-0.1-0.3-0.2-0.5-0.3-0.8
	c-0.5-0.7-1.7-2.6-3.4-3.4c-1-0.5-10.4-0.7-18.3,6.3c-7.8,6.9-8.2,15.5-7.9,16.8l0,0l0,0.1c0.6,1.7,2.3,3.2,3,3.8
	C4.8,29.8,6.3,29.1,7.1,28.7z"/>
</svg>
