<?xml version="1.0" encoding="utf-8"?>
<!-- Generator: Adobe Illustrator 19.1.0, SVG Export Plug-In . SVG Version: 6.00 Build 0)  -->
<svg version="1.1" id="Layer_1" xmlns="http://www.w3.org/2000/svg" xmlns:xlink="http://www.w3.org/1999/xlink" x="0px" y="0px"
	 viewBox="0 0 1920 248.3" style="enable-background:new 0 0 1920 248.3;" xml:space="preserve">
<style type="text/css">
	.st0{fill:#1EC1EB;}
</style>
<g>
	<path class="st0" d="M1739.5,46.8V9.3h-65.6V150h-9.4v9.4h150V46.8H1739.5z M1720.8,150h-28.1v-18.8h28.1V150z M1730.1,112.5h-46.9
		v-9.4h46.9V112.5z M1730.1,93.7h-46.9v-9.4h46.9V93.7z M1730.1,75h-46.9v-9.4h46.9V75z M1730.1,56.2h-46.9v-9.4h46.9V56.2z
		 M1730.1,37.5h-46.9v-9.4h46.9V37.5z M1777,140.6h-18.8v-18.8h18.8V140.6z M1777,112.5h-18.8V93.7h18.8V112.5z M1777,84.3h-18.8
		V65.6h18.8V84.3z M1805.1,140.6h-18.8v-18.8h18.8V140.6z M1805.1,112.5h-18.8V93.7h18.8V112.5z M1805.1,84.3h-18.8V65.6h18.8V84.3z
		"/>
	<rect y="159" class="st0" width="1920" height="89.3"/>
	<g>
		<path class="st0" d="M333.9,90.8c0.4,0.4,0.9,0.6,1.5,0.6c1.1,0,2.1-0.9,2.1-2.1V70.6c0-1.2-0.9-2.1-2.1-2.1h-18.7
			c-0.8,0-1.6,0.5-1.9,1.3c-0.3,0.8-0.1,1.7,0.5,2.3L333.9,90.8z"/>
		<polygon class="st0" points="262.5,112.7 262.5,160.1 291.7,160.1 291.7,131 308.3,131 308.3,160.1 337.5,160.1 337.5,112.7 
			300,75.2 		"/>
		<path class="st0" d="M349.4,112.9C349.4,112.9,349.4,112.9,349.4,112.9l-48-48c-0.8-0.8-2.1-0.8-2.9,0l-47.9,47.9
			c-0.8,0.8-0.9,2,0,2.9c0.9,0.9,2.2,0.8,3,0.1c0,0,0,0,0,0L300,69.3l46.4,46.4c0,0,0,0,0,0c0.8,0.8,2.1,0.8,2.9,0c0,0,0,0,0,0
			C350.1,115,350.2,113.8,349.4,112.9z"/>
	</g>
	<path class="st0" d="M220.1,48.5c0-0.6,0.2-1.1,0.2-1.7c0-14.8-11.4-26.7-25.9-27.9c-5.2-5.8-12.6-9.6-21-9.6
		c-10,0-18.7,5.3-23.7,13.1c-4.1-2.3-8.8-3.8-13.8-3.8c-15.5,0-28.1,12.6-28.1,28.1c0,0.6,0.1,1.1,0.2,1.7C96.9,52.3,89,62.7,89,75
		c0,15.5,12.6,28.1,28.1,28.1c5.1,0,9.9-1.5,14.1-3.9c4.2,2.4,8.9,3.9,14.1,3.9c3.3,0,6.4-0.7,9.4-1.7V150h-9.4v9.4h37.5V150h-9.4
		v-46.9c1.6,0,3.1-0.2,4.7-0.5c1.5,0.3,3.1,0.5,4.7,0.5c5.1,0,9.9-1.5,14.1-3.9c4.2,2.4,8.9,3.9,14.1,3.9
		c15.5,0,28.1-12.6,28.1-28.1C239,62.7,231.1,52.3,220.1,48.5z"/>
</g>
</svg>
