<?xml version="1.0" encoding="utf-8"?>
<!-- Generator: Adobe Illustrator 19.1.0, SVG Export Plug-In . SVG Version: 6.00 Build 0)  -->
<svg version="1.1" id="Layer_1" xmlns="http://www.w3.org/2000/svg" xmlns:xlink="http://www.w3.org/1999/xlink" x="0px" y="0px"
	 viewBox="-933 515 52 52" style="enable-background:new -933 515 52 52;" xml:space="preserve">
<style type="text/css">
	.st0{fill:#1BC1EB;}
</style>
<path id="Twitter_2_" class="st0" d="M-894.6,553.5H-907c-1.7,0-3.2-0.6-4.4-1.8c-1.2-1.2-1.8-2.7-1.8-4.4v-4.4h17.6
	c1.6,0,3-0.6,4.1-1.7c1.1-1.1,1.7-2.5,1.7-4.1c0-1.6-0.6-3-1.7-4.1c-1.1-1.1-2.5-1.7-4.1-1.7h-17.6v-9.1c0-1.7-0.6-3.2-1.8-4.4
	c-1.2-1.2-2.7-1.8-4.4-1.8c-1.7,0-3.2,0.6-4.4,1.8c-1.2,1.2-1.8,2.7-1.8,4.5v25.1c0,5.1,1.8,9.5,5.5,13.2c3.7,3.7,8,5.5,13.2,5.5
	h12.3c1.7,0,3.2-0.6,4.4-1.8c1.2-1.2,1.8-2.7,1.8-4.4s-0.6-3.2-1.8-4.4C-891.4,554.1-892.9,553.5-894.6,553.5z"/>
</svg>
