<?xml version="1.0" encoding="utf-8"?>
<!-- Generator: Adobe Illustrator 19.1.0, SVG Export Plug-In . SVG Version: 6.00 Build 0)  -->
<svg version="1.1" id="Layer_1" xmlns="http://www.w3.org/2000/svg" xmlns:xlink="http://www.w3.org/1999/xlink" x="0px" y="0px"
	 viewBox="0 0 52 52" style="enable-background:new 0 0 52 52;" xml:space="preserve">
<style type="text/css">
	.st0{fill:#1EC1EB;}
</style>
<g>
	<path class="st0" d="M44.6,29.1l-6.8-6.8c-0.2-0.2-0.3-0.5-0.3-0.9c0.1-0.3,0.3-0.6,0.6-0.7c1.5-0.7,2.9-1.6,4.1-2.8l5.1-5.1
		c2.2-2.2,2.2-5.9,0-8.1s-5.9-2.2-8.1,0l-5.1,5.1c-1.2,1.2-2.1,2.6-2.8,4.1c-0.1,0.3-0.4,0.5-0.7,0.6c-0.3,0.1-0.6,0-0.9-0.3
		l-6.8-6.8c-1.5-1.5-3.9-1.5-5.4,0l-3.4,3.4l27.1,27.1l3.4-3.4C46.1,33,46.1,30.6,44.6,29.1z M41.9,10.1c-0.7-0.7-0.7-2,0-2.7
		c0.7-0.7,2-0.7,2.7,0c0.7,0.7,0.7,2,0,2.7C43.9,10.8,42.7,10.8,41.9,10.1z"/>
	<path class="st0" d="M37.8,37.2l-23-23c-0.4-0.4-1-0.4-1.4,0L3.3,24.3c-0.4,0.4-0.4,1,0,1.4l3.4,3.4c0.3,0.3,0.6,0.3,1,0.2l4.3-1.4
		l-2.5,2.5c-0.4,0.4-0.4,1,0,1.4l8.1,8.1l3.5-3.5c0.4-0.4,1-0.4,1.4,0c0.4,0.4,0.4,1,0,1.4l-3.5,3.5l1.4,1.4l5.9-5.9
		c0.4-0.4,1-0.4,1.4,0c0.4,0.4,0.4,1,0,1.4L21.6,44l1.4,1.4l7.5-7.5c0.4-0.4,1-0.4,1.4,0c0.4,0.4,0.4,1,0,1.4l-7.5,7.5l2,2
		c0.4,0.4,1,0.4,1.4,0l10.2-10.2C38.2,38.2,38.2,37.6,37.8,37.2z"/>
</g>
</svg>
