<?xml version="1.0" encoding="utf-8"?>
<!-- Generator: Adobe Illustrator 19.2.1, SVG Export Plug-In . SVG Version: 6.00 Build 0)  -->
<svg version="1.1" id="Layer_1" xmlns="http://www.w3.org/2000/svg" xmlns:xlink="http://www.w3.org/1999/xlink" x="0px" y="0px"
	 viewBox="0 0 31 31" style="enable-background:new 0 0 31 31;" xml:space="preserve">
<style type="text/css">
	.st0{fill:#1BC1EB;}
</style>
<g>
	<path class="st0" d="M11.7,13.9c1.2-1.2,3.2-1.2,4.4,0l1.1,1.1c0.6,0.6,1.6,0.6,2.2,0c0.6-0.6,0.6-1.6,0-2.2l-1.1-1.1
		c-1.2-1.2-2.7-1.8-4.4-1.8c-1.7,0-3.2,0.6-4.4,1.8l-7.1,7.1c-2.4,2.4-2.4,6.4,0,8.8l1.1,1.1c1.2,1.2,2.7,1.8,4.4,1.8
		c1.7,0,3.2-0.6,4.4-1.8l3.4-3.4c0.6-0.6,0.6-1.6,0-2.2c-0.6-0.6-1.6-0.6-2.2,0L10,26.5c-1.2,1.2-3.2,1.2-4.4,0l-1.1-1.1
		c-1.2-1.2-1.2-3.2,0-4.4L11.7,13.9z"/>
	<path class="st0" d="M21.5,19.3l7.1-7.1c1.2-1.2,1.8-2.7,1.8-4.4c0-1.7-0.6-3.2-1.8-4.4l-1.1-1.1c-1.2-1.2-2.7-1.8-4.4-1.8
		c-1.7,0-3.2,0.6-4.4,1.8l-3.1,3.1c-0.6,0.6-0.6,1.6,0,2.2c0.6,0.6,1.6,0.6,2.2,0L21,4.5c0.6-0.6,1.4-0.9,2.2-0.9s1.6,0.3,2.2,0.9
		l1.1,1.1c0.6,0.6,0.9,1.4,0.9,2.2c0,0.8-0.3,1.6-0.9,2.2l-7.1,7.1c-1.2,1.2-3.2,1.2-4.4,0c-0.6-0.6-1.6-0.6-2.2,0
		c-0.6,0.6-0.6,1.6,0,2.2c1.2,1.2,2.7,1.8,4.4,1.8C18.8,21.2,20.4,20.5,21.5,19.3z"/>
</g>
</svg>
